<svg xmlns="http://www.w3.org/2000/svg" xmlns:xlink="http://www.w3.org/1999/xlink" width="300" zoomAndPan="magnify" viewBox="0 0 224.87999 74.999997" height="100" preserveAspectRatio="xMidYMid meet" version="1.0"><defs><g/><clipPath id="5e786b06b8"><path d="M 65 9.273438 L 153 9.273438 L 153 65 L 65 65 Z M 65 9.273438 " clip-rule="nonzero"/></clipPath></defs><g clip-path="url(#5e786b06b8)"><path fill="#df1d0f" d="M 135.5 9.28125 C 158.933594 11.683594 156.957031 31.585938 138.617188 46.199219 C 122.65625 59.203125 101.199219 65.714844 85.730469 64.652344 C 58.289062 62.628906 60.015625 40.113281 84.785156 23.808594 C 100.847656 13.449219 63.546875 34.722656 67.519531 51.628906 C 69.03125 60.785156 81.808594 62.976562 91.125 62.585938 C 136.660156 60.160156 174.378906 15.636719 135.5 9.28125 Z M 135.5 9.28125 " fill-opacity="1" fill-rule="nonzero"/></g><path fill="#df1d0f" d="M 135.160156 16.03125 C 150.347656 18.972656 142.960938 36.289062 123.519531 45.515625 C 137.503906 36.058594 150.910156 21.796875 135.160156 16.03125 Z M 135.160156 16.03125 " fill-opacity="1" fill-rule="nonzero"/><g fill="#ffffff" fill-opacity="1"><g transform="translate(36.997351, 42.830837)"><g><path d="M 8.40625 0 L 10.53125 -5.90625 L 12.53125 0 L 17.265625 0 C 17.46875 0 17.65625 -0.0625 17.828125 -0.15625 L 19.296875 -0.90625 C 19.609375 -1.0625 19.859375 -1.34375 19.984375 -1.671875 L 24.125 -13.109375 L 16.4375 -13.109375 L 14.171875 -6.890625 L 12.3125 -13.109375 L 5.453125 -13.109375 L 0.703125 0 Z M 8.40625 0 "/></g></g></g><g fill="#ffffff" fill-opacity="1"><g transform="translate(57.083721, 42.830837)"><g><path d="M 2.140625 -2.046875 L 4.015625 -0.265625 C 4.1875 -0.078125 4.484375 0 4.796875 0 L 16.328125 0 L 17.328125 -2.734375 L 9.359375 -2.734375 C 8.90625 -2.734375 8.65625 -3.109375 8.828125 -3.578125 L 9.46875 -5.359375 L 10.375 -3.78125 L 14.6875 -3.78125 C 14.984375 -3.78125 15.328125 -3.859375 15.625 -4.0625 L 18.0625 -5.296875 C 18.59375 -5.578125 19.03125 -6.0625 19.21875 -6.5625 L 19.765625 -8.03125 C 20.5625 -10.296875 19.3125 -11.34375 16.671875 -11.34375 L 9.0625 -11.34375 C 6.4375 -11.34375 4.4375 -10.296875 3.625 -8.03125 L 1.90625 -3.328125 C 1.71875 -2.796875 1.8125 -2.375 2.140625 -2.046875 Z M 10.359375 -7.75 C 10.515625 -8.234375 11.03125 -8.59375 11.515625 -8.59375 L 12.828125 -8.59375 C 13.296875 -8.59375 13.546875 -8.234375 13.390625 -7.75 L 13.25 -7.390625 C 13.078125 -6.90625 12.53125 -6.5 12.0625 -6.5 L 9.890625 -6.5 Z M 10.359375 -7.75 "/></g></g></g><g fill="#ffffff" fill-opacity="1"><g transform="translate(74.349536, 42.830837)"><g><path d="M 16.796875 -11.34375 L 15.375 -8.109375 C 15.28125 -7.890625 14.609375 -6.203125 14.21875 -5 L 14.96875 -11.34375 L 13.390625 -11.34375 L 9.546875 -4.953125 C 10.03125 -6.203125 10.546875 -7.890625 10.640625 -8.09375 L 11.5625 -11.34375 L 4.609375 -11.34375 L 2.28125 -2.203125 C 2 -1.046875 2.453125 0 3.6875 0 L 8.515625 0 L 12.171875 -5.78125 L 11.5625 0 L 16.09375 0 C 16.328125 0 16.53125 -0.0625 16.734375 -0.15625 L 18.234375 -0.921875 C 18.609375 -1.125 18.890625 -1.53125 19.09375 -1.890625 L 23.5 -11.34375 Z M 16.796875 -11.34375 "/></g></g></g><g fill="#ffffff" fill-opacity="1"><g transform="translate(94.254582, 42.830837)"><g><path d="M 18.265625 -7.203125 L 10.03125 -7.203125 L 10.234375 -7.75 C 10.390625 -8.234375 10.9375 -8.59375 11.4375 -8.59375 L 18.765625 -8.59375 L 19.765625 -11.34375 L 8.78125 -11.34375 C 8.5 -11.34375 8.15625 -11.265625 7.828125 -11.0625 L 4.671875 -9.3125 C 4.125 -9 3.703125 -8.515625 3.53125 -8.015625 L 2.109375 -4.109375 L 10.359375 -4.109375 L 10.15625 -3.578125 C 9.984375 -3.109375 9.453125 -2.734375 8.96875 -2.734375 L 1.609375 -2.734375 L 0.625 0 L 11.5625 0 C 11.90625 0 12.203125 -0.078125 12.5 -0.265625 L 15.703125 -2.046875 C 16.234375 -2.375 16.65625 -2.796875 16.859375 -3.328125 Z M 18.265625 -7.203125 "/></g></g></g><g fill="#ffffff" fill-opacity="1"><g transform="translate(110.533203, 42.830837)"><g><path d="M 18.265625 -7.203125 L 10.03125 -7.203125 L 10.234375 -7.75 C 10.390625 -8.234375 10.9375 -8.59375 11.4375 -8.59375 L 18.765625 -8.59375 L 19.765625 -11.34375 L 8.78125 -11.34375 C 8.5 -11.34375 8.15625 -11.265625 7.828125 -11.0625 L 4.671875 -9.3125 C 4.125 -9 3.703125 -8.515625 3.53125 -8.015625 L 2.109375 -4.109375 L 10.359375 -4.109375 L 10.15625 -3.578125 C 9.984375 -3.109375 9.453125 -2.734375 8.96875 -2.734375 L 1.609375 -2.734375 L 0.625 0 L 11.5625 0 C 11.90625 0 12.203125 -0.078125 12.5 -0.265625 L 15.703125 -2.046875 C 16.234375 -2.375 16.65625 -2.796875 16.859375 -3.328125 Z M 18.265625 -7.203125 "/></g></g></g><g fill="#ffffff" fill-opacity="1"><g transform="translate(126.811824, 42.830837)"><g><path d="M 4.8125 -11.34375 L -0.421875 3.109375 L 6.625 3.109375 L 8.28125 -1.4375 L 9.734375 0 L 14.296875 0 C 16.078125 0 17.765625 -1.25 18.40625 -3.015625 L 20.4375 -8.59375 C 21.09375 -10.375 20.46875 -11.34375 18.6875 -11.34375 L 12.984375 -11.34375 L 11.578125 -10.515625 L 11.890625 -11.34375 Z M 11.5 -3.578125 C 11.34375 -3.109375 10.828125 -2.734375 10.359375 -2.734375 L 8.765625 -2.734375 L 10.890625 -8.59375 L 12.484375 -8.59375 C 12.96875 -8.59375 13.1875 -8.234375 13.03125 -7.75 Z M 11.5 -3.578125 "/></g></g></g><g fill="#ffffff" fill-opacity="1"><g transform="translate(144.78278, 42.830837)"><g><path d="M 4.15625 0 L 12.484375 0 C 15.109375 0 17.125 -1.046875 17.953125 -3.296875 L 19.859375 -8.546875 C 20.046875 -9.046875 19.9375 -9.53125 19.640625 -9.84375 L 18.09375 -11.0625 C 17.90625 -11.265625 17.640625 -11.34375 17.296875 -11.34375 L 8.984375 -11.34375 C 6.359375 -11.34375 4.34375 -10.296875 3.546875 -8.03125 L 1.625 -2.796875 C 1.453125 -2.28125 1.515625 -1.8125 1.796875 -1.484375 L 3.390625 -0.265625 C 3.546875 -0.078125 3.828125 0 4.15625 0 Z M 8.703125 -3.578125 L 10.234375 -7.75 C 10.390625 -8.234375 10.9375 -8.59375 11.375 -8.59375 L 12.171875 -8.59375 C 12.640625 -8.59375 12.90625 -8.234375 12.75 -7.75 L 11.21875 -3.578125 C 11.0625 -3.109375 10.515625 -2.734375 10.078125 -2.734375 L 9.28125 -2.734375 C 8.796875 -2.734375 8.546875 -3.109375 8.703125 -3.578125 Z M 8.703125 -3.578125 "/></g></g></g><g fill="#ffffff" fill-opacity="1"><g transform="translate(162.149337, 42.830837)"><g><path d="M 17.140625 -11.34375 L 13.4375 -11.34375 L 11.140625 -9.78125 L 11 -11.34375 L 4.890625 -11.34375 L 0.78125 0 L 7.875 0 L 10.328125 -6.765625 L 11.859375 -7.75 C 12.078125 -7.890625 12.1875 -7.890625 12.359375 -7.890625 L 15.890625 -7.890625 Z M 17.140625 -11.34375 "/></g></g></g><g fill="#ffffff" fill-opacity="1"><g transform="translate(175.52682, 42.830837)"><g><path d="M 10.15625 -3.578125 L 11.984375 -8.59375 L 15.046875 -8.59375 L 16.03125 -11.34375 L 12.96875 -11.34375 L 13.84375 -13.671875 L 6.75 -13.671875 L 5.875 -11.34375 L 4.53125 -11.34375 L 3.90625 -9.609375 L 4.890625 -8.59375 L 2.984375 -3.328125 C 2.78125 -2.796875 2.875 -2.375 3.203125 -2.046875 L 5.078125 -0.265625 C 5.25 -0.078125 5.5625 0 5.859375 0 L 11.921875 0 L 12.90625 -2.734375 L 10.6875 -2.734375 C 10.234375 -2.734375 9.984375 -3.109375 10.15625 -3.578125 Z M 10.15625 -3.578125 "/></g></g></g></svg>