<svg xmlns="http://www.w3.org/2000/svg" xmlns:xlink="http://www.w3.org/1999/xlink" width="200" zoomAndPan="magnify" viewBox="0 0 150 52.499999" height="70" preserveAspectRatio="xMidYMid meet" version="1.0"><defs><g/><clipPath id="a82136aac6"><path d="M 43 6.890625 L 103 6.890625 L 103 44.78125 L 43 44.78125 Z M 43 6.890625 " clip-rule="nonzero"/></clipPath></defs><g clip-path="url(#a82136aac6)"><path fill="#df1d0f" d="M 90.609375 6.894531 C 106.476562 8.519531 105.140625 21.992188 92.722656 31.890625 C 81.914062 40.691406 67.390625 45.101562 56.914062 44.382812 C 38.339844 43.011719 39.507812 27.765625 56.277344 16.726562 C 67.152344 9.714844 41.898438 24.117188 44.585938 35.5625 C 45.609375 41.761719 54.261719 43.246094 60.570312 42.984375 C 91.398438 41.339844 116.933594 11.195312 90.609375 6.894531 Z M 90.609375 6.894531 " fill-opacity="1" fill-rule="nonzero"/></g><path fill="#df1d0f" d="M 90.382812 11.464844 C 100.664062 13.453125 95.664062 25.179688 82.5 31.425781 C 91.96875 25.023438 101.042969 15.367188 90.382812 11.464844 Z M 90.382812 11.464844 " fill-opacity="1" fill-rule="nonzero"/><g fill="#000000" fill-opacity="1"><g transform="translate(23.922307, 29.61155)"><g><path d="M 5.6875 0 L 7.140625 -4 L 8.484375 0 L 11.6875 0 C 11.828125 0 11.96875 -0.046875 12.078125 -0.109375 L 13.0625 -0.609375 C 13.28125 -0.71875 13.453125 -0.90625 13.53125 -1.125 L 16.34375 -8.875 L 11.125 -8.875 L 9.609375 -4.671875 L 8.328125 -8.875 L 3.703125 -8.875 L 0.484375 0 Z M 5.6875 0 "/></g></g></g><g fill="#000000" fill-opacity="1"><g transform="translate(37.521584, 29.61155)"><g><path d="M 1.453125 -1.390625 L 2.71875 -0.171875 C 2.84375 -0.046875 3.046875 0 3.25 0 L 11.0625 0 L 11.734375 -1.859375 L 6.34375 -1.859375 C 6.03125 -1.859375 5.859375 -2.09375 5.96875 -2.421875 L 6.40625 -3.625 L 7.03125 -2.5625 L 9.9375 -2.5625 C 10.15625 -2.5625 10.375 -2.625 10.578125 -2.75 L 12.234375 -3.59375 C 12.59375 -3.78125 12.890625 -4.109375 13.015625 -4.453125 L 13.375 -5.4375 C 13.921875 -6.96875 13.078125 -7.671875 11.296875 -7.671875 L 6.140625 -7.671875 C 4.359375 -7.671875 3 -6.96875 2.453125 -5.4375 L 1.296875 -2.25 C 1.15625 -1.890625 1.234375 -1.609375 1.453125 -1.390625 Z M 7.015625 -5.25 C 7.125 -5.578125 7.46875 -5.828125 7.796875 -5.828125 L 8.6875 -5.828125 C 9 -5.828125 9.1875 -5.578125 9.078125 -5.25 L 8.96875 -5 C 8.859375 -4.671875 8.484375 -4.40625 8.171875 -4.40625 L 6.703125 -4.40625 Z M 7.015625 -5.25 "/></g></g></g><g fill="#000000" fill-opacity="1"><g transform="translate(49.211234, 29.61155)"><g><path d="M 11.375 -7.671875 L 10.40625 -5.5 C 10.359375 -5.34375 9.890625 -4.203125 9.625 -3.390625 L 10.140625 -7.671875 L 9.078125 -7.671875 L 6.46875 -3.359375 C 6.796875 -4.203125 7.140625 -5.34375 7.203125 -5.484375 L 7.828125 -7.671875 L 3.125 -7.671875 L 1.546875 -1.484375 C 1.34375 -0.703125 1.671875 0 2.5 0 L 5.765625 0 L 8.234375 -3.921875 L 7.828125 0 L 10.90625 0 C 11.0625 0 11.203125 -0.046875 11.328125 -0.109375 L 12.34375 -0.625 C 12.609375 -0.765625 12.796875 -1.03125 12.9375 -1.28125 L 15.921875 -7.671875 Z M 11.375 -7.671875 "/></g></g></g><g fill="#000000" fill-opacity="1"><g transform="translate(62.687747, 29.61155)"><g><path d="M 12.375 -4.890625 L 6.796875 -4.890625 L 6.921875 -5.25 C 7.03125 -5.578125 7.40625 -5.828125 7.75 -5.828125 L 12.71875 -5.828125 L 13.375 -7.671875 L 5.953125 -7.671875 C 5.75 -7.671875 5.53125 -7.625 5.3125 -7.484375 L 3.171875 -6.296875 C 2.796875 -6.09375 2.515625 -5.765625 2.390625 -5.421875 L 1.4375 -2.78125 L 7.015625 -2.78125 L 6.875 -2.421875 C 6.765625 -2.09375 6.390625 -1.859375 6.0625 -1.859375 L 1.09375 -1.859375 L 0.421875 0 L 7.828125 0 C 8.0625 0 8.265625 -0.046875 8.46875 -0.171875 L 10.640625 -1.390625 C 11 -1.609375 11.28125 -1.890625 11.421875 -2.25 Z M 12.375 -4.890625 "/></g></g></g><g fill="#000000" fill-opacity="1"><g transform="translate(73.709025, 29.61155)"><g><path d="M 12.375 -4.890625 L 6.796875 -4.890625 L 6.921875 -5.25 C 7.03125 -5.578125 7.40625 -5.828125 7.75 -5.828125 L 12.71875 -5.828125 L 13.375 -7.671875 L 5.953125 -7.671875 C 5.75 -7.671875 5.53125 -7.625 5.3125 -7.484375 L 3.171875 -6.296875 C 2.796875 -6.09375 2.515625 -5.765625 2.390625 -5.421875 L 1.4375 -2.78125 L 7.015625 -2.78125 L 6.875 -2.421875 C 6.765625 -2.09375 6.390625 -1.859375 6.0625 -1.859375 L 1.09375 -1.859375 L 0.421875 0 L 7.828125 0 C 8.0625 0 8.265625 -0.046875 8.46875 -0.171875 L 10.640625 -1.390625 C 11 -1.609375 11.28125 -1.890625 11.421875 -2.25 Z M 12.375 -4.890625 "/></g></g></g><g fill="#000000" fill-opacity="1"><g transform="translate(84.730304, 29.61155)"><g><path d="M 3.265625 -7.671875 L -0.28125 2.09375 L 4.484375 2.09375 L 5.609375 -0.96875 L 6.59375 0 L 9.6875 0 C 10.890625 0 12.03125 -0.84375 12.46875 -2.046875 L 13.84375 -5.828125 C 14.28125 -7.03125 13.859375 -7.671875 12.65625 -7.671875 L 8.796875 -7.671875 L 7.84375 -7.125 L 8.046875 -7.671875 Z M 7.78125 -2.421875 C 7.671875 -2.09375 7.34375 -1.859375 7.015625 -1.859375 L 5.9375 -1.859375 L 7.375 -5.828125 L 8.453125 -5.828125 C 8.78125 -5.828125 8.9375 -5.578125 8.828125 -5.25 Z M 7.78125 -2.421875 "/></g></g></g><g fill="#000000" fill-opacity="1"><g transform="translate(96.897362, 29.61155)"><g><path d="M 2.8125 0 L 8.453125 0 C 10.234375 0 11.59375 -0.703125 12.15625 -2.234375 L 13.453125 -5.78125 C 13.578125 -6.125 13.5 -6.453125 13.296875 -6.671875 L 12.25 -7.484375 C 12.125 -7.625 11.953125 -7.671875 11.71875 -7.671875 L 6.078125 -7.671875 C 4.3125 -7.671875 2.953125 -6.96875 2.40625 -5.4375 L 1.109375 -1.890625 C 0.984375 -1.546875 1.015625 -1.234375 1.21875 -1.015625 L 2.296875 -0.171875 C 2.40625 -0.046875 2.59375 0 2.8125 0 Z M 5.890625 -2.421875 L 6.921875 -5.25 C 7.03125 -5.578125 7.40625 -5.828125 7.703125 -5.828125 L 8.234375 -5.828125 C 8.5625 -5.828125 8.75 -5.578125 8.640625 -5.25 L 7.59375 -2.421875 C 7.484375 -2.09375 7.125 -1.859375 6.828125 -1.859375 L 6.28125 -1.859375 C 5.96875 -1.859375 5.78125 -2.09375 5.890625 -2.421875 Z M 5.890625 -2.421875 "/></g></g></g><g fill="#000000" fill-opacity="1"><g transform="translate(108.655216, 29.61155)"><g><path d="M 11.609375 -7.671875 L 9.09375 -7.671875 L 7.546875 -6.625 L 7.453125 -7.671875 L 3.3125 -7.671875 L 0.53125 0 L 5.328125 0 L 7 -4.578125 L 8.03125 -5.25 C 8.1875 -5.34375 8.25 -5.34375 8.375 -5.34375 L 10.765625 -5.34375 Z M 11.609375 -7.671875 "/></g></g></g><g fill="#000000" fill-opacity="1"><g transform="translate(117.712308, 29.61155)"><g><path d="M 6.875 -2.421875 L 8.109375 -5.828125 L 10.1875 -5.828125 L 10.859375 -7.671875 L 8.78125 -7.671875 L 9.375 -9.265625 L 4.5625 -9.265625 L 3.984375 -7.671875 L 3.0625 -7.671875 L 2.640625 -6.5 L 3.3125 -5.828125 L 2.015625 -2.25 C 1.875 -1.890625 1.953125 -1.609375 2.171875 -1.390625 L 3.4375 -0.171875 C 3.5625 -0.046875 3.765625 0 3.96875 0 L 8.078125 0 L 8.75 -1.859375 L 7.25 -1.859375 C 6.921875 -1.859375 6.765625 -2.09375 6.875 -2.421875 Z M 6.875 -2.421875 "/></g></g></g></svg>